<svg xmlns="http://www.w3.org/2000/svg" viewBox="0 0 243.62 72.9"><defs><style>.cls-1{fill:none;stroke:#36495e;stroke-miterlimit:10;}.cls-2{fill:#54bd8d;}.cls-3{fill:#36495e;}</style></defs><title>Asset 9</title><g id="Layer_2" data-name="Layer 2"><g id="Layer_2-2" data-name="Layer 2"><circle class="cls-1" cx="235.17" cy="8.45" r="7.95"/><path id="path1948" class="cls-2" d="M235.18.75a11.33,11.33,0,0,0-1.81.15c-1.6.29-1.89.88-1.89,2V4.32h3.79V4.8h-5.22a2.37,2.37,0,0,0-2.37,1.92,7.13,7.13,0,0,0,0,3.86c.27,1.12.92,1.92,2,1.92H231V10.77a2.42,2.42,0,0,1,2.37-2.36h3.79a1.91,1.91,0,0,0,1.9-1.92V2.87a2.12,2.12,0,0,0-1.9-2A11,11,0,0,0,235.18.75Zm-2.05,1.16a.71.71,0,0,1,.71.72.71.71,0,1,1-1.42,0A.71.71,0,0,1,233.13,1.91Z"/><path id="path1950" class="cls-3" d="M239.53,4.8V6.49a2.43,2.43,0,0,1-2.37,2.4h-3.79a1.93,1.93,0,0,0-1.89,1.93v3.61c0,1,.89,1.63,1.89,1.93a6.43,6.43,0,0,0,3.79,0c1-.28,1.9-.84,1.9-1.93V13h-3.79V12.5H241c1.11,0,1.52-.77,1.9-1.92a6.49,6.49,0,0,0,0-3.86c-.27-1.09-.79-1.92-1.9-1.92ZM237.4,14a.72.72,0,1,1-.71.72A.71.71,0,0,1,237.4,14Z"/></g><g id="Layer_1-2" data-name="Layer 1"><path class="cls-2" d="M51.61,9.33q0,4.39-.36,13.21t-.37,13.25V61.21c0,.7-.37,1-1.12,1s-1.55,0-2.8.08-2.18.08-2.79.08-1.67,0-3-.16-2.34-.15-3-.15c-.46,0-1-.42-1.66-1.27Q33.72,57.08,24,44.24q-2.65-3.59-8.1-10.57a1.54,1.54,0,0,0-.58-.46,1.08,1.08,0,0,0-.3.85q0,4.47.25,13.42t.25,13.42c0,.9-.35,1.35-1,1.35H1.12C.37,62.25,0,61.86,0,61.06q0-4.17.41-12.58t.4-12.61q0-4.44-.37-13.27T.08,9.37c0-.57.5-.85,1.5-.85,1.49,0,3.33-.1,5.52-.31.51-.05,1.53-.22,3.05-.5a18.4,18.4,0,0,1,3-.35c.31,0,.79.44,1.43,1.31L29,28.39q1.92,2.66,5.82,7.79c.65.8,1.2,1.19,1.66,1.19s.5-1,.5-3q0-4-.44-12.19T36.11,10c0-.95.27-1.43.81-1.43q2.31,0,7-.19t7-.2C51.37,8.13,51.61,8.53,51.61,9.33Z"/><path class="cls-2" d="M93.41,43q0,3,.35,8.83t.35,8.8c0,1-.45,1.58-1.35,1.65-3.19.24-6.84.35-11,.35-.49,0-.81-.74-1-2.22s-.37-2.23-.6-2.25a3.37,3.37,0,0,0-.81.65q-4.32,4.36-9.26,4.36A15.53,15.53,0,0,1,57.69,57.2,19.94,19.94,0,0,1,53,43.93Q53,35,57.85,29.58,62.86,24,71.58,24a11.75,11.75,0,0,1,9.57,4.24c.1.13.19.2.27.2.23,0,.49-.63.79-1.87s.65-1.88,1.06-1.88a34,34,0,0,1,5.44.81,55.82,55.82,0,0,1,5.47,1.32c.39.15.58.36.58.61a7.71,7.71,0,0,1-.11.81A84.19,84.19,0,0,0,93.41,43ZM81,43.2a7.51,7.51,0,0,0-2.06-5.42,7.83,7.83,0,0,0-10.74,0,8,8,0,0,0,.11,10.8,7,7,0,0,0,5.25,2.24,7.19,7.19,0,0,0,5.36-2.14A7.51,7.51,0,0,0,81,43.2Z"/><path class="cls-2" d="M135.64,52.23q0,11-4.63,15.77-4.78,4.91-15.89,4.9a51.72,51.72,0,0,1-8.84-1c-4.75-.88-7.13-1.9-7.13-3.09q0-.73,1.66-7.56.27-1.08.84-1.08a1.92,1.92,0,0,1,.43.16,25.1,25.1,0,0,0,11,2.93,12.07,12.07,0,0,0,5.52-1.39c2.21-1.11,3.32-2.49,3.32-4.17V55.08a14.17,14.17,0,0,1-10.11,3.7,15.28,15.28,0,0,1-11.92-5.2,17.79,17.79,0,0,1-4.51-12.35A17.73,17.73,0,0,1,99.69,29,15.06,15.06,0,0,1,111.49,24a10.41,10.41,0,0,1,8.91,4.17c.41.56.7.84.85.84s.35-.46.35-1.38q0-3.09.69-3.09c.41,0,2.64.21,6.67.64s6.14.66,6.29.71a1,1,0,0,1,.66,1q0,2.67-.18,8t-.17,8c0,1,0,2.63,0,4.74S135.64,51.17,135.64,52.23ZM122.29,41.54a7,7,0,0,0-1.87-4.88,6.08,6.08,0,0,0-4.69-2.06,6,6,0,0,0-4.68,2.1,7.15,7.15,0,0,0-1.87,4.92,6.87,6.87,0,0,0,1.91,4.86,6.11,6.11,0,0,0,4.64,2,6,6,0,0,0,4.69-2.08A7.08,7.08,0,0,0,122.29,41.54Z"/><path class="cls-3" d="M180.46,28.77q0,9.35-4.9,15.12Q170.33,50,161.1,50q-1.54,0-4.65-.18c-2.07-.11-3.62-.17-4.65-.17s-1.65.47-1.65,1.43c0,1.18.11,2.94.34,5.28s.35,4.09.35,5.25c0,.59-.27.88-.81.88q-2.35,0-7.06-.13t-7.06-.14a1,1,0,0,1-1.12-1.11q0-4.29.14-12.87t.13-12.86q0-12.12-1-25.46l0-.54c0-.49.34-.79,1.16-.89q3-.39,13.27-.39c4,0,7.91.06,11.61.16q9.14.27,14.74,5.75T180.46,28.77Zm-15.39.62q0-9-8.75-9-6.18,0-6.48.7-.27.49-.27,8.91c0,.79,0,2,.09,3.53s.1,2.73.1,3.52q0,.78,6.94.78Q165.07,37.84,165.07,29.39Z"/><path class="cls-3" d="M226.12,22.14a6.41,6.41,0,0,1-.61,2.89,126,126,0,0,1-13.78,21A5,5,0,0,0,210.5,49c0,1.37.08,3.41.23,6.14s.23,4.76.23,6.09c0,.47-.1.75-.31.85a7.82,7.82,0,0,1-1,.19,57.22,57.22,0,0,1-6.94.24,62.51,62.51,0,0,1-7.14-.24q-1.08-.15-1.08-1.11c0-1.37.12-3.44.35-6.23s.35-4.88.35-6.27a4.92,4.92,0,0,0-.93-2.66q-4.66-6.6-13.35-20.22a5.2,5.2,0,0,1-.88-2.47q0-2.31-.23-6.94t-.24-6.94c0-.85.26-1.28.78-1.28q2.34,0,7.13.2t7.18.19c.59,0,.88.19.88.58,0,1.31-.05,3.28-.17,5.92s-.17,4.61-.17,5.92q0,1.15,3.39,5.79c1.8,2.41,3.28,4.28,4.44,5.59,1.05-1.23,2.45-3.09,4.2-5.55,2.21-3.09,3.32-4.95,3.32-5.6q0-1.92-.29-5.84t-.29-5.85c0-.54.12-.84.35-.92h1q2.33,0,7-.21c3.1-.14,5.44-.22,7-.22.51,0,.77.56.77,1.66,0,1.37,0,3.42.08,6.16S226.12,20.75,226.12,22.14Z"/></g></g></svg>