<svg xmlns="http://www.w3.org/2000/svg" viewBox="0 0 90.85 91.86"><defs><style>.cls-1{fill:#54bd8d;}.cls-2{fill:#36495e;}</style></defs><title>Asset 4</title><g id="Layer_2" data-name="Layer 2"><g id="Layer_2-2" data-name="Layer 2"><path id="path1948" class="cls-1" d="M44.89,0A63.71,63.71,0,0,0,34.41.89C25.14,2.53,23.46,6,23.46,12.29v8.35H45.37v2.78H15.23c-6.37,0-11.94,3.83-13.69,11.11-2,8.35-2.1,13.56,0,22.27C3.1,63.29,6.82,67.91,13.19,67.91h7.53v-10A13.93,13.93,0,0,1,34.41,44.29H56.3a11,11,0,0,0,11-11.14V12.29c0-5.94-5-10.4-11-11.4A68.71,68.71,0,0,0,44.89,0ZM33,6.72a4.18,4.18,0,1,1-4.11,4.19A4.16,4.16,0,0,1,33,6.72Z"/><path id="path1950" class="cls-2" d="M70,23.42v9.73A14.05,14.05,0,0,1,56.3,47.05H34.41A11.17,11.17,0,0,0,23.46,58.18V79.05c0,5.94,5.16,9.43,10.95,11.13a36.65,36.65,0,0,0,21.89,0c5.52-1.59,11-4.81,11-11.13V70.7H45.37V67.91H78.22c6.36,0,8.74-4.44,11-11.11,2.29-6.86,2.19-13.46,0-22.27-1.57-6.34-4.58-11.11-11-11.11ZM57.68,76.26a4.18,4.18,0,1,1-4.11,4.17A4.14,4.14,0,0,1,57.68,76.26Z"/></g></g></svg>